<svg id="eihsEaFOg981" xmlns="http://www.w3.org/2000/svg" xmlns:xlink="http://www.w3.org/1999/xlink" viewBox="0 0 800 500" shape-rendering="geometricPrecision" text-rendering="geometricPrecision" project-id="f3ecb9847fff4118ba1d4a927c886120" export-id="f205e91590a1483e9329f96e76bcb9df" cached="false" width="800" height="500"><path d="M502.608051,-207.957733h32.952113v230.305704h-32.952113l-78.057289-158.746558v158.746558h-32.952113v-230.305704h32.952113l78.057289,158.746558v-158.746558Zm-455.117528,0h32.681062v114.06009c.018935,8.053167-.334674,16.101733-1.059313,24.111173q-1.192073,12.82516-3.725575,23.983178c-.239784,1.054098-.49057,2.104805-.752306,3.151892q-5.490175,21.999246-15.361427,36.622744c-.056094.084394-.112331.168657-.168716.252791-6.42294,9.572069-14.767063,17.1871-24.308891,22.184839-7.3764,3.817207-15.248564,6.193852-23.296596,7.033359-2.850786.315276-5.713062.471184-8.576843.467184-6.018612.035733-12.023265-.67334-17.911523-2.115127-4.852172-1.202567-9.577825-3.008185-14.094676-5.385415-9.512631-5.053104-17.846211-12.658513-24.308891-22.184839-3.844918-5.640354-7.102442-11.784841-9.705302-18.306572-2.405064-5.999023-4.398017-12.207876-5.960366-18.568963-1.922131-7.830004-3.31114-15.822178-4.154278-23.903181q-1.211434-11.212416-1.360789-23.736786c-.01464-1.202016-.022016-2.404138-.022127-3.606276v-114.06009h32.952113v110.309818c-.00921,6.029073.136521,12.057129.437001,18.07618q.448065,8.706901,1.360789,16.207444c.356062,2.96114.792358,5.908623,1.308238,8.838097q2.298406,12.946756,5.999088,22.044044c.823349,2.037895,1.751568,4.016845,2.77966,5.926197c1.6302,3.052286,3.557678,5.878128,5.744631,8.422111c2.348113,2.726335,5.058932,4.999384,8.029208,6.732569c4.483141,2.563135,9.353264,4.096436,14.340835,4.515045c1.249495.115772,2.502505.173415,3.755999.172794c3.880497.024754,7.749358-.493116,11.522453-1.542347c2.442157-.689672,4.824343-1.637627,7.116484-2.831903c3.938961-2.091151,7.465963-5.09355,10.36357-8.822098c1.44484-1.834823,2.765286-3.795767,3.949607-5.865399q4.613406-8.002926,7.597738-20.335303c.595749-2.47317,1.125198-4.967078,1.587587-7.478144.863252-4.759194,1.522325-9.56491,1.974803-14.399506q.710819-7.343748,1.023358-15.810658c.165878-4.613861.247027-9.231277.243393-13.849125v-110.309818ZM-115.652032,22.347971h-34.301839l-37.543393-83.43394c-.187214-.000387-.374411.003881-.561464.0128q-.672097.035199-1.601416.140795c-.254943.029429-.510373.052901-.766135.070398q-1.291643.086397-3.418567.086397h-8.643223-15.801194v83.12355h-32.412776v-230.305704h57.261004q12.695165,0,25.119279,4.687839c8.126076,3.025803,15.686215,7.796971,22.284302,14.063518c6.568111,6.242986,11.987218,13.946651,15.93672,22.655223c3.335512,7.369219,5.33104,15.450753,5.863562,23.746386.143422,2.027678.214471,4.061336.212969,6.095791.039112,6.874798-.603065,13.732124-1.913955,20.437699-1.532766,7.85303-4.269982,15.324556-8.081759,22.060044-6.563168,11.570403-15.96965,20.603098-27.008342,25.935111l45.376227,90.624093Zm318.720561,0h-74.8185v-230.305704h57.261004c8.284154-.025468,16.539527,1.128768,24.579942,3.436682c5.239732,1.484052,10.299502,3.716589,15.062717,6.646172c2.075093,1.287767,4.080356,2.72078,6.00462,4.291053c6.157446,5.047491,11.162455,11.750525,14.584228,19.53213c2.144966,4.852336,3.64258,10.05242,4.441925,15.423471.657206,4.347509.978388,8.754103.959743,13.167549.015132,3.615636-.295394,7.223256-.926553,10.764431-.424978,2.350355-1.017984,4.655802-1.772898,6.892564-1.041844,3.105222-2.31138,6.101644-3.79472,8.956493-.897236,1.719154-1.885605,3.37239-2.959439,4.95023-2.608558,3.860568-5.758273,7.187667-9.318085,9.842863-1.452368,1.085403-2.965895,2.057142-4.530432,2.9087q-2.862635,1.542347-5.598042,2.246323q6.212057.937568,13.234502,4.687839c3.756369,2.026222,7.254598,4.639316,10.39676,7.766134.929707.916346,1.831899,1.869411,2.704983,2.857502c3.184575,3.634138,5.916669,7.763174,8.117715,12.268379.718441,1.45387,1.389172,2.938613,2.010759,4.451047c1.730611,4.264142,2.904142,8.802041,3.482182,13.465138.3872,3.042705.577649,6.114594.569761,9.190085.014252,4.149909-.226986,8.295722-.721882,12.405975q-.802091,6.470178-2.500311,11.977189c-.257762.83807-.534442,1.668192-.829749,2.489515-1.25064,3.5125-2.749256,6.89984-4.480647,10.127653-1.628071,3.037781-3.520533,5.874858-5.647827,8.46691-2.6662,3.250077-5.640755,6.141857-8.867255,8.620504-1.408419,1.073211-2.867343,2.05496-4.370013,2.940699-2.565187,1.521129-5.195155,2.89136-7.879853,4.105459-1.933222.87077-3.899949,1.638485-5.893986,2.300721-1.695233.564557-3.406406,1.062956-5.130617,1.494349q-2.566691.636778-4.862331.956767c-.58413.082496-1.169692.150776-1.756303.204793q-4.193.383987-6.040575.454384c-.236849.009728-.47382.015062-.710819.015999Zm138.830898-230.305704v230.305704h-32.952113v-230.305704h32.952113Zm-560.18869,28.437425v91.244872h29.439508c3.915084-.014105,7.802742-.756352,11.514155-2.198325.123738-.047317.247279-.095315.370621-.143995c3.774588-1.506556,7.243007-3.890244,10.192088-7.00456.206054-.214687.409819-.432296.611249-.652778c1.673378-1.854612,3.128697-3.955752,4.328526-6.249386q1.99693-3.753471,3.504308-8.591705q2.973269-9.532473,2.973269-23.592791c-.005999-1.754439-.092785-3.507262-.259988-5.25102q-.248925-2.691108-.738477-5.686205c-.111336-.678844-.229354-1.356197-.354026-2.03193-.752248-4.000996-2.088875-7.824225-3.952373-11.305212-.497543-.942579-1.026206-1.862695-1.584821-2.758305-1.816169-2.877165-4.010181-5.407939-6.502469-7.500543-1.661144-1.406521-3.4155-2.659422-5.246782-3.747072q-5.736334-3.439882-14.274455-4.268654c-1.899819-.179571-3.805297-.267114-5.711441-.262391h-24.308891ZM160.660039,-5.151886h40.516662c3.201007.033452,6.391521-.428219,9.486801-1.372753c5.010638-1.523887,9.513356-4.745332,12.930261-9.250883c3.362789-4.474979,5.721404-9.839103,6.867559-15.618665q1.236327-5.862199,1.236327-12.818761c.035314-4.805976-.544415-9.591537-1.720347-14.201113-1.356687-5.219744-3.62018-10.064097-6.651824-14.236312-3.816067-5.225213-9.013468-8.850817-14.7889-10.316446-3.209963-.859286-6.496393-1.277099-9.791043-1.244757h-38.085496v79.05969Zm1.352491-104.370822h22.688114c4.052504-.00273,8.10448-.107286,12.153062-.313589c4.039295-.177207,7.999503-1.348815,11.616491-3.436682q5.401668-3.126293,8.775982-10.623636c.829249-1.88878,1.473978-3.87859,1.922253-5.932597q1.360789-5.990195,1.449296-14.453904c.003878-.392505.00572-.785029.005532-1.17756-.007426-2.668382-.22125-5.330646-.638907-7.954927-.19766-1.263857-.434753-2.519037-.710819-3.763071q-1.349726-6.092591-5.401668-11.09402c-1.332436-1.617817-2.838194-3.031899-4.480647-4.207856q-2.198836-1.603145-4.92318-2.9247c-.72881-.353524-1.465711-.6843-2.209899-.991966-1.97654-.798088-4.004738-1.413331-6.065468-1.839937q-5.963132-1.283156-13.923194-1.283156h-21.609439v69.9976h1.352491Z" transform="translate(257.8615 213.769357)" fill="none" stroke="#000"/><path d="M345.044951,54.004538h28.421689v220.327686h-28.421689L277.71889,122.4636v151.868625h-28.424463v-220.327686h28.424463l67.326061,151.868625v-151.868625Zm-167.037757,0h27.955669v220.327686h-27.955669v-99.253536h-74.316365v99.253536h-28.421689v-220.327686h28.421689v96.562446h74.316365v-96.562446Zm325.221128,0h31.916841L484.127039,184.64701v89.685215h-28.421689v-86.695114L407.247563,54.004538h31.916841l29.58674,98.655516h2.563112l31.914067-98.655516Zm-677.698895-4.485151h28.421689v171.599728c.015218,3.886333-.219512,7.767651-.701804,11.604437q-.829405,6.382441-2.635234,11.67563c-.333818.977891-.697483,1.93855-1.090155,2.879751-2.797952,6.856282-6.880723,12.712017-11.880743,17.040013-4.120107,3.518789-8.65545,6.161935-13.43137,7.827656-1.220038.434504-2.451483.814429-3.692101,1.139086q-9.667147,2.541585-19.916819,2.541585-4.294044,0-9.811391-.943305c-.730515-.125228-1.460091-.259316-2.188631-.40224-3.541696-.701737-7.051222-1.648802-10.513196-2.837036-1.238307-.423295-2.471028-.873059-3.697649-1.349105-4.778211-1.840567-9.482134-3.984935-14.09434-6.425156q-6.280178-3.335386-10.74898-7.446774c-.223668-.205747-.445593-.414595-.665743-.626497l11.880743-24.216254c.533388.474928,1.08418.916829,1.650488,1.324187q1.89182,1.374022,4.599176,2.808559c.130206.068167.260583.1358.391124.2029c1.87273.971153,3.769222,1.865082,5.686557,2.680411c1.24251.528906,2.49188,1.030887,3.74758,1.505729c3.078954,1.162968,6.189634,2.182877,9.325953,3.057734.462766.129827.926018.256789,1.389739.380882c2.004789.541642,4.030837.944466,6.069359,1.206719c1.467492.188391,2.941284.284615,4.416097.288331q9.034691,0,15.386991-3.281991c1.500888-.768075,2.939944-1.72181,4.296818-2.847715c3.161446-2.6665,5.490007-6.676713,6.576989-11.326785q.895979-3.520487,1.153955-7.827656c.032619-.540439.057587-1.081594.074896-1.623197v-168.609628ZM34.24826,187.548119c.810348-8.100129,1.206019-16.259714,1.184468-24.426273-.000214-1.149822-.007612-2.299626-.022191-3.449294q-.149792-11.9782-1.34813-22.671369c-.836412-7.72764-2.21037-15.343654-4.105417-22.7568-1.355969-5.272974-2.998469-10.417417-4.915404-15.395458-2.721653-7.124089-6.160178-13.758972-10.227481-19.734663Q5.146958,65.06435,-7.782331,57.742164c-2.769841-1.567948-5.621966-2.884689-8.535383-3.940525-6.436459-2.294753-13.089655-3.433992-19.769801-3.385221-1.58309-.001018-3.165853.058335-4.746195.177982-8.124448.54968-16.10553,2.970843-23.561763,7.147764-8.658715,4.919434-16.371867,12.214664-22.596436,21.372099-3.313338,4.850548-6.203382,10.151516-8.618601,15.808376-2.63122,6.170635-4.815157,12.638389-6.524284,19.321744-.140968.542095-.278744,1.085549-.413316,1.630317q-2.676843,10.846233-3.936207,23.433132c-.770248,7.899126-1.146418,15.853331-1.126216,23.814014q0,27.804374,5.475738,49.030528c1.405453,5.50758,3.123415,10.87565,5.140093,16.061111c2.675797,6.930832,6.037864,13.389225,10.002792,19.214955q9.667147,14.049912,22.596436,21.226153q12.932063,7.172681,28.307958,7.172681c1.738708.001548,3.477008-.068495,5.212215-.210019c7.953618-.588719,15.767247-2.944573,23.092969-6.962662c8.668959-4.829945,16.388715-12.081565,22.596436-21.226153c3.426212-5.018969,6.397601-10.520579,8.857159-16.399277c2.526748-6.042203,4.630255-12.360481,6.285726-18.880348.061623-.235869.122649-.471991.183079-.708369q2.790574-11.063372,4.108191-23.892326ZM-36.786546,246.53141c5.649364.025462,11.241616-1.450754,16.424441-4.335646q7.803066-4.335646,13.977834-14.199417c2.026248-3.280788,3.769222-6.833917,5.198345-10.597058q2.041613-5.28607,3.619979-11.629355c.299895-1.20484.58288-2.4165.848823-3.634396.998135-4.650831,1.766195-9.377966,2.299588-14.153142q1.289878-11.191519,1.428574-24.860549c-.046727-5.297885-.253077-10.59147-.618586-15.86889q-.579751-8.162262-1.68655-15.192558c-.371399-2.37053-.807169-4.7237-1.306521-7.055213q-3.012488-13.992958-8.061041-23.589757c-.404139-.770257-.823131-1.527511-1.25659-2.271052-1.744081-3.019193-3.730992-5.794398-5.927889-8.27973-2.279019-2.576626-4.833854-4.721134-7.586699-6.368202q-7.570056-4.485151-15.955647-4.485151c-5.637836-.027584-11.222742,1.395857-16.424441,4.186141-3.513235,1.916811-6.734426,4.616299-9.514581,7.973601-1.610868,1.924172-3.10309,4.005677-4.463254,6.225816q-5.683783,9.223036-9.098491,23.383297c-.198233.822858-.388722,1.648756-.57143,2.477512-.999724,4.617836-1.767829,9.313134-2.299588,14.057032q-1.289878,11.138124-1.428574,24.807155.183079,17.605996,2.305136,31.153999c.371901,2.389226.807663,4.761347,1.306521,7.112167.852004,4.054747,1.910217,8.033467,3.167828,11.910567q1.96949,6.001559,4.443836,10.846233c.541077,1.06003,1.111009,2.095338,1.708741,3.104009c1.835224,3.130418,3.927727,5.998213,6.241343,8.553823c2.206085,2.429439,4.650303,4.478181,7.270471,6.094109c4.979013,3.069562,10.434641,4.653992,15.958421,4.634656Z" transform="translate(258.2765 218.212)" fill="none" stroke="#000"/></svg>
