<svg viewBox="0.353 0.452 214.572 54.477" xmlns="http://www.w3.org/2000/svg">
  <rect x="0.353" y="0.452" width="214.572" height="54.477" style="stroke: rgb(0, 0, 0); fill-opacity: 0.8;"/>
  <path fill-rule="evenodd" clip-rule="evenodd" d="M 203.899 28.56 C 203.939 26.502 202.983 23.306 199.04 23.306 C 195.496 23.306 193.944 26.318 193.665 28.56 L 203.899 28.56 Z M 193.624 30.875 C 193.704 35.247 196.734 37.047 200.236 37.047 C 202.743 37.047 204.258 36.644 205.573 36.129 L 206.17 38.444 C 204.934 38.957 202.826 39.546 199.759 39.546 C 193.826 39.546 190.277 35.945 190.277 30.58 C 190.277 25.217 193.704 20.991 199.32 20.991 C 205.613 20.991 207.286 26.099 207.286 29.368 C 207.286 30.031 207.208 30.544 207.164 30.875 L 193.624 30.875 Z M 179.047 26.943 C 179.047 24.849 179.007 23.049 178.885 21.396 L 181.952 21.396 L 182.074 24.885 L 182.232 24.885 C 183.109 22.498 185.221 20.991 187.569 20.991 C 187.968 20.991 188.244 21.026 188.564 21.101 L 188.564 24.15 C 188.205 24.077 187.849 24.041 187.372 24.041 C 184.901 24.041 183.148 25.768 182.67 28.193 C 182.591 28.634 182.509 29.149 182.509 29.7 L 182.509 39.179 L 179.047 39.179 L 179.047 26.943 Z M 169.723 39.178 L 173.228 39.178 L 173.228 21.396 L 169.723 21.396 L 169.723 39.178 Z M 173.627 16.398 C 173.666 17.5 172.79 18.382 171.396 18.382 C 170.161 18.382 169.285 17.5 169.285 16.398 C 169.285 15.26 170.204 14.377 171.475 14.377 C 172.79 14.377 173.627 15.26 173.627 16.398 Z M 150.526 31.94 C 150.526 32.418 150.609 32.859 150.688 33.263 C 151.323 35.504 153.432 37.047 155.942 37.047 C 159.649 37.047 161.797 34.254 161.797 30.177 C 161.797 26.612 159.767 23.563 156.061 23.563 C 153.676 23.563 151.442 25.143 150.763 27.568 C 150.645 27.971 150.526 28.45 150.526 28.891 L 150.526 31.94 Z M 147.061 27.2 C 147.061 24.923 146.982 23.085 146.903 21.396 L 150.048 21.396 L 150.207 24.444 L 150.289 24.444 C 151.723 22.278 153.992 20.991 157.138 20.991 C 161.797 20.991 165.302 24.629 165.302 30.031 C 165.302 36.422 161.082 39.582 156.542 39.582 C 153.992 39.582 151.762 38.553 150.609 36.79 L 150.526 36.79 L 150.526 46.453 L 147.061 46.453 L 147.061 27.2 Z M 127.066 35.285 C 128.622 36.166 130.888 36.901 133.28 36.901 C 136.824 36.901 138.894 35.173 138.894 32.674 C 138.894 30.361 137.46 29.037 133.836 27.751 C 129.455 26.318 126.747 24.224 126.747 20.733 C 126.747 16.877 130.213 14.01 135.431 14.01 C 138.179 14.01 140.169 14.597 141.364 15.222 L 140.409 17.831 C 139.533 17.39 137.74 16.655 135.313 16.655 C 131.646 16.655 130.253 18.675 130.253 20.366 C 130.253 22.681 131.887 23.821 135.593 25.143 C 140.129 26.759 142.442 28.78 142.442 32.418 C 142.442 36.239 139.375 39.546 133.039 39.546 C 130.45 39.546 127.627 38.847 126.19 37.966 L 127.066 35.285 Z M 108.743 31.794 C 108.743 32.161 108.782 32.528 108.861 32.859 C 109.382 34.66 111.095 36.019 113.203 36.019 C 116.271 36.019 118.142 33.742 118.142 30.14 C 118.142 26.98 116.512 24.408 113.243 24.408 C 111.253 24.408 109.465 25.729 108.905 27.716 C 108.822 28.045 108.743 28.45 108.743 28.891 L 108.743 31.794 Z M 103.687 39.179 C 103.766 37.966 103.846 35.981 103.846 34.145 L 103.846 13.092 L 108.743 13.092 L 108.743 23.747 L 108.822 23.747 C 110.018 22.019 112.129 20.881 115.035 20.881 C 119.776 20.881 123.162 24.518 123.123 29.957 C 123.123 36.386 118.702 39.582 114.32 39.582 C 111.81 39.582 109.579 38.7 108.186 36.497 L 108.108 36.497 L 107.867 39.179 L 103.687 39.179 Z M 98.547 33.814 C 98.547 35.945 98.626 37.71 98.706 39.179 L 94.405 39.179 L 94.166 36.458 L 94.087 36.458 C 93.25 37.746 91.338 39.582 87.874 39.582 C 84.329 39.582 81.102 37.636 81.102 31.794 L 81.102 21.284 L 86.001 21.284 L 86.001 31.021 C 86.001 33.997 87.037 35.908 89.627 35.908 C 91.576 35.908 92.851 34.622 93.368 33.484 C 93.529 33.079 93.649 32.602 93.649 32.087 L 93.649 21.284 L 98.547 21.284 L 98.547 33.814 Z M 59.512 14.414 L 59.512 24.334 L 70.864 24.334 L 70.864 14.414 L 75.763 14.414 L 75.763 39.179 L 70.864 39.179 L 70.864 28.266 L 59.512 28.266 L 59.512 39.179 L 54.613 39.179 L 54.613 14.414 L 59.512 14.414 Z" fill="#fff"/>
  <path fill-rule="evenodd" clip-rule="evenodd" d="M 25.474 17.748 C 28.257 17.748 30.523 15.476 30.523 12.685 L 30.523 10.516 C 30.523 7.723 28.257 5.453 25.474 5.453 L 23.308 5.453 C 20.525 5.453 18.259 7.723 18.259 10.516 L 18.259 12.685 C 18.259 15.476 20.525 17.748 23.308 17.748 L 25.474 17.748 Z M 23.308 43.814 C 20.525 43.814 18.259 41.541 18.259 38.751 L 18.259 36.581 C 18.259 33.392 15.672 30.8 12.492 30.8 L 10.328 30.8 C 7.545 30.8 5.278 28.528 5.278 25.735 L 5.278 23.566 C 5.278 20.775 7.545 18.503 10.328 18.503 L 12.492 18.503 C 15.277 18.503 17.542 20.775 17.542 23.566 L 17.542 25.735 C 17.542 28.924 20.13 31.518 23.308 31.518 L 25.474 31.518 C 28.652 31.518 31.238 28.924 31.238 25.735 L 31.238 23.566 C 31.238 20.775 33.504 18.503 36.29 18.503 L 38.453 18.503 C 41.237 18.503 43.503 20.775 43.503 23.566 L 43.503 25.735 C 43.503 28.528 41.237 30.8 38.453 30.8 L 36.29 30.8 C 33.109 30.8 30.523 33.392 30.523 36.581 L 30.523 38.751 C 30.523 41.541 28.257 43.814 25.474 43.814 L 23.308 43.814 Z" fill="#1faae1" class="hubspire-logo-rep"/>
</svg>
